<?xml version="1.0" encoding="UTF-8"?>
<svg xmlns:xhtml="http://www.w3.org/1999/xhtml" xmlns:xlink="http://www.w3.org/1999/xlink" xmlns="http://www.w3.org/2000/svg" id="mermaid-svg-10" width="100%" class="flowchart" style="max-width: 100%;" viewBox="-55.894628906250006 -55.894628906250006 1229.6818359375002 2808.6720703125" height="100%"><style>#mermaid-svg-10{font-family:"trebuchet ms",verdana,arial,sans-serif;font-size:16px;fill:#ccc;}@keyframes edge-animation-frame{from{stroke-dashoffset:0;}}@keyframes dash{to{stroke-dashoffset:0;}}#mermaid-svg-10 .edge-animation-slow{stroke-dasharray:9,5!important;stroke-dashoffset:900;animation:dash 50s linear infinite;stroke-linecap:round;}#mermaid-svg-10 .edge-animation-fast{stroke-dasharray:9,5!important;stroke-dashoffset:900;animation:dash 20s linear infinite;stroke-linecap:round;}#mermaid-svg-10 .error-icon{fill:#a44141;}#mermaid-svg-10 .error-text{fill:#ddd;stroke:#ddd;}#mermaid-svg-10 .edge-thickness-normal{stroke-width:1px;}#mermaid-svg-10 .edge-thickness-thick{stroke-width:3.5px;}#mermaid-svg-10 .edge-pattern-solid{stroke-dasharray:0;}#mermaid-svg-10 .edge-thickness-invisible{stroke-width:0;fill:none;}#mermaid-svg-10 .edge-pattern-dashed{stroke-dasharray:3;}#mermaid-svg-10 .edge-pattern-dotted{stroke-dasharray:2;}#mermaid-svg-10 .marker{fill:lightgrey;stroke:lightgrey;}#mermaid-svg-10 .marker.cross{stroke:lightgrey;}#mermaid-svg-10 svg{font-family:"trebuchet ms",verdana,arial,sans-serif;font-size:16px;}#mermaid-svg-10 p{margin:0;}#mermaid-svg-10 .label{font-family:"trebuchet ms",verdana,arial,sans-serif;color:#ccc;}#mermaid-svg-10 .cluster-label text{fill:#F9FFFE;}#mermaid-svg-10 .cluster-label span{color:#F9FFFE;}#mermaid-svg-10 .cluster-label span p{background-color:transparent;}#mermaid-svg-10 .label text,#mermaid-svg-10 span{fill:#ccc;color:#ccc;}#mermaid-svg-10 .node rect,#mermaid-svg-10 .node circle,#mermaid-svg-10 .node ellipse,#mermaid-svg-10 .node polygon,#mermaid-svg-10 .node path{fill:#1f2020;stroke:#ccc;stroke-width:1px;}#mermaid-svg-10 .rough-node .label text,#mermaid-svg-10 .node .label text,#mermaid-svg-10 .image-shape .label,#mermaid-svg-10 .icon-shape .label{text-anchor:middle;}#mermaid-svg-10 .node .katex path{fill:#000;stroke:#000;stroke-width:1px;}#mermaid-svg-10 .rough-node .label,#mermaid-svg-10 .node .label,#mermaid-svg-10 .image-shape .label,#mermaid-svg-10 .icon-shape .label{text-align:center;}#mermaid-svg-10 .node.clickable{cursor:pointer;}#mermaid-svg-10 .root .anchor path{fill:lightgrey!important;stroke-width:0;stroke:lightgrey;}#mermaid-svg-10 .arrowheadPath{fill:lightgrey;}#mermaid-svg-10 .edgePath .path{stroke:lightgrey;stroke-width:2.0px;}#mermaid-svg-10 .flowchart-link{stroke:lightgrey;fill:none;}#mermaid-svg-10 .edgeLabel{background-color:hsl(0, 0%, 34.4117647059%);text-align:center;}#mermaid-svg-10 .edgeLabel p{background-color:hsl(0, 0%, 34.4117647059%);}#mermaid-svg-10 .edgeLabel rect{opacity:0.5;background-color:hsl(0, 0%, 34.4117647059%);fill:hsl(0, 0%, 34.4117647059%);}#mermaid-svg-10 .labelBkg{background-color:rgba(87.75, 87.75, 87.75, 0.5);}#mermaid-svg-10 .cluster rect{fill:hsl(180, 1.5873015873%, 28.3529411765%);stroke:rgba(255, 255, 255, 0.25);stroke-width:1px;}#mermaid-svg-10 .cluster text{fill:#F9FFFE;}#mermaid-svg-10 .cluster span{color:#F9FFFE;}#mermaid-svg-10 div.mermaidTooltip{position:absolute;text-align:center;max-width:200px;padding:2px;font-family:"trebuchet ms",verdana,arial,sans-serif;font-size:12px;background:hsl(20, 1.5873015873%, 12.3529411765%);border:1px solid rgba(255, 255, 255, 0.25);border-radius:2px;pointer-events:none;z-index:100;}#mermaid-svg-10 .flowchartTitleText{text-anchor:middle;font-size:18px;fill:#ccc;}#mermaid-svg-10 rect.text{fill:none;stroke-width:0;}#mermaid-svg-10 .icon-shape,#mermaid-svg-10 .image-shape{background-color:hsl(0, 0%, 34.4117647059%);text-align:center;}#mermaid-svg-10 .icon-shape p,#mermaid-svg-10 .image-shape p{background-color:hsl(0, 0%, 34.4117647059%);padding:2px;}#mermaid-svg-10 .icon-shape rect,#mermaid-svg-10 .image-shape rect{opacity:0.5;background-color:hsl(0, 0%, 34.4117647059%);fill:hsl(0, 0%, 34.4117647059%);}#mermaid-svg-10 .label-icon{display:inline-block;height:1em;overflow:visible;vertical-align:-0.125em;}#mermaid-svg-10 .node .label-icon path{fill:currentColor;stroke:revert;stroke-width:revert;}#mermaid-svg-10 :root{--mermaid-font-family:"trebuchet ms",verdana,arial,sans-serif;}</style><g><marker id="mermaid-svg-10_flowchart-v2-pointEnd" class="marker flowchart-v2" viewBox="0 0 10 10" refX="5" refY="5" markerUnits="userSpaceOnUse" markerWidth="8" markerHeight="8" orient="auto"><path d="M 0 0 L 10 5 L 0 10 z" class="arrowMarkerPath" style="stroke-width: 1; stroke-dasharray: 1, 0;"/></marker><marker id="mermaid-svg-10_flowchart-v2-pointStart" class="marker flowchart-v2" viewBox="0 0 10 10" refX="4.5" refY="5" markerUnits="userSpaceOnUse" markerWidth="8" markerHeight="8" orient="auto"><path d="M 0 5 L 10 10 L 10 0 z" class="arrowMarkerPath" style="stroke-width: 1; stroke-dasharray: 1, 0;"/></marker><marker id="mermaid-svg-10_flowchart-v2-circleEnd" class="marker flowchart-v2" viewBox="0 0 10 10" refX="11" refY="5" markerUnits="userSpaceOnUse" markerWidth="11" markerHeight="11" orient="auto"><circle cx="5" cy="5" r="5" class="arrowMarkerPath" style="stroke-width: 1; stroke-dasharray: 1, 0;"/></marker><marker id="mermaid-svg-10_flowchart-v2-circleStart" class="marker flowchart-v2" viewBox="0 0 10 10" refX="-1" refY="5" markerUnits="userSpaceOnUse" markerWidth="11" markerHeight="11" orient="auto"><circle cx="5" cy="5" r="5" class="arrowMarkerPath" style="stroke-width: 1; stroke-dasharray: 1, 0;"/></marker><marker id="mermaid-svg-10_flowchart-v2-crossEnd" class="marker cross flowchart-v2" viewBox="0 0 11 11" refX="12" refY="5.2" markerUnits="userSpaceOnUse" markerWidth="11" markerHeight="11" orient="auto"><path d="M 1,1 l 9,9 M 10,1 l -9,9" class="arrowMarkerPath" style="stroke-width: 2; stroke-dasharray: 1, 0;"/></marker><marker id="mermaid-svg-10_flowchart-v2-crossStart" class="marker cross flowchart-v2" viewBox="0 0 11 11" refX="-1" refY="5.2" markerUnits="userSpaceOnUse" markerWidth="11" markerHeight="11" orient="auto"><path d="M 1,1 l 9,9 M 10,1 l -9,9" class="arrowMarkerPath" style="stroke-width: 2; stroke-dasharray: 1, 0;"/></marker><g class="root"><g class="clusters"/><g class="edgePaths"><path d="M152,62L152,66.167C152,70.333,152,78.667,152,86.333C152,94,152,101,152,104.5L152,108" id="L_A_B_0" class="edge-thickness-normal edge-pattern-solid edge-thickness-normal edge-pattern-solid flowchart-link" style="" marker-end="url(#mermaid-svg-10_flowchart-v2-pointEnd)"/><path d="M152,190L152,194.167C152,198.333,152,206.667,152,214.333C152,222,152,229,152,232.5L152,236" id="L_B_C_0" class="edge-thickness-normal edge-pattern-solid edge-thickness-normal edge-pattern-solid flowchart-link" style="" marker-end="url(#mermaid-svg-10_flowchart-v2-pointEnd)"/><path d="M152,294L152,298.167C152,302.333,152,310.667,152,318.333C152,326,152,333,152,336.5L152,340" id="L_C_D_0" class="edge-thickness-normal edge-pattern-solid edge-thickness-normal edge-pattern-solid flowchart-link" style="" marker-end="url(#mermaid-svg-10_flowchart-v2-pointEnd)"/><path d="M152,398L152,402.167C152,406.333,152,414.667,152,422.333C152,430,152,437,152,440.5L152,444" id="L_D_E_0" class="edge-thickness-normal edge-pattern-solid edge-thickness-normal edge-pattern-solid flowchart-link" style="" marker-end="url(#mermaid-svg-10_flowchart-v2-pointEnd)"/><path d="M152,574L152,578.167C152,582.333,152,590.667,152,598.333C152,606,152,613,152,616.5L152,620" id="L_E_F_0" class="edge-thickness-normal edge-pattern-solid edge-thickness-normal edge-pattern-solid flowchart-link" style="" marker-end="url(#mermaid-svg-10_flowchart-v2-pointEnd)"/><path d="M152,702L152,706.167C152,710.333,152,718.667,152.07,726.417C152.141,734.167,152.281,741.334,152.351,744.917L152.422,748.501" id="L_F_G_0" class="edge-thickness-normal edge-pattern-solid edge-thickness-normal edge-pattern-solid flowchart-link" style="" marker-end="url(#mermaid-svg-10_flowchart-v2-pointEnd)"/><path d="M143.471,928.752L142.559,936.34C141.647,943.928,139.824,959.105,138.912,972.193C138,985.281,138,996.281,138,1001.781L138,1007.281" id="L_G_H_0" class="edge-thickness-normal edge-pattern-solid edge-thickness-normal edge-pattern-solid flowchart-link" style="" marker-end="url(#mermaid-svg-10_flowchart-v2-pointEnd)"/><path d="M202.346,887.936L219.121,902.326C235.897,916.717,269.449,945.499,286.224,972.557C303,999.615,303,1024.948,303,1050.281C303,1075.615,303,1100.948,303,1126.281C303,1151.615,303,1176.948,303,1200.281C303,1223.615,303,1244.948,291.531,1259.564C280.062,1274.18,257.124,1282.08,245.655,1286.029L234.186,1289.979" id="L_G_I_0" class="edge-thickness-normal edge-pattern-solid edge-thickness-normal edge-pattern-solid flowchart-link" style="" marker-end="url(#mermaid-svg-10_flowchart-v2-pointEnd)"/><path d="M138,1089.281L138,1095.448C138,1101.615,138,1113.948,138,1125.615C138,1137.281,138,1148.281,138,1153.781L138,1159.281" id="L_H_J_0" class="edge-thickness-normal edge-pattern-solid edge-thickness-normal edge-pattern-solid flowchart-link" style="" marker-end="url(#mermaid-svg-10_flowchart-v2-pointEnd)"/><path d="M138,1241.281L138,1245.448C138,1249.615,138,1257.948,138.948,1265.638C139.897,1273.327,141.794,1280.373,142.742,1283.896L143.691,1287.419" id="L_J_I_0" class="edge-thickness-normal edge-pattern-solid edge-thickness-normal edge-pattern-solid flowchart-link" style="" marker-end="url(#mermaid-svg-10_flowchart-v2-pointEnd)"/><path d="M152,1345.281L152,1349.448C152,1353.615,152,1361.948,152,1369.615C152,1377.281,152,1384.281,152,1387.781L152,1391.281" id="L_I_K_0" class="edge-thickness-normal edge-pattern-solid edge-thickness-normal edge-pattern-solid flowchart-link" style="" marker-end="url(#mermaid-svg-10_flowchart-v2-pointEnd)"/><path d="M238,1434.359L285.377,1441.013C332.754,1447.667,427.508,1460.974,474.955,1471.211C522.402,1481.448,522.543,1488.615,522.613,1492.199L522.683,1495.782" id="L_K_L_0" class="edge-thickness-normal edge-pattern-solid edge-thickness-normal edge-pattern-solid flowchart-link" style="" marker-end="url(#mermaid-svg-10_flowchart-v2-pointEnd)"/><path d="M522.762,1633.781L522.678,1639.865C522.595,1645.948,522.428,1658.115,522.345,1678.865C522.262,1699.615,522.262,1728.948,522.262,1756.281C522.262,1783.615,522.262,1808.948,516.4,1825.418C510.538,1841.889,498.814,1849.496,492.952,1853.3L487.09,1857.104" id="L_L_M_0" class="edge-thickness-normal edge-pattern-solid edge-thickness-normal edge-pattern-solid flowchart-link" style="" marker-end="url(#mermaid-svg-10_flowchart-v2-pointEnd)"/><path d="M423.631,1937.281L423.631,1941.448C423.631,1945.615,423.631,1953.948,414.016,1966.144C404.401,1978.34,385.17,1994.398,375.555,2002.427L365.94,2010.457" id="L_M_N_0" class="edge-thickness-normal edge-pattern-solid edge-thickness-normal edge-pattern-solid flowchart-link" style="" marker-end="url(#mermaid-svg-10_flowchart-v2-pointEnd)"/><path d="M337.631,2079.656L337.548,2085.74C337.464,2091.823,337.298,2103.99,337.214,2123.717C337.131,2143.444,337.131,2170.732,337.131,2184.376L337.131,2198.02" id="L_N_O_0" class="edge-thickness-normal edge-pattern-solid edge-thickness-normal edge-pattern-solid flowchart-link" style="" marker-end="url(#mermaid-svg-10_flowchart-v2-pointEnd)"/><path d="M304.419,2020.993L279.016,2011.208C253.613,2001.422,202.806,1981.852,177.403,1961.4C152,1940.948,152,1919.615,152,1898.281C152,1876.948,152,1855.615,152,1832.281C152,1808.948,152,1783.615,152,1756.281C152,1728.948,152,1699.615,152,1667.615C152,1635.615,152,1600.948,152,1568.281C152,1535.615,152,1504.948,152,1486.115C152,1467.281,152,1460.281,152,1456.781L152,1453.281" id="L_N_K_0" class="edge-thickness-normal edge-pattern-solid edge-thickness-normal edge-pattern-solid flowchart-link" style="" marker-end="url(#mermaid-svg-10_flowchart-v2-pointEnd)"/><path d="M337.131,2280.02L337.131,2294.33C337.131,2308.641,337.131,2337.262,332.329,2357.231C327.527,2377.2,317.922,2388.516,313.12,2394.175L308.318,2399.833" id="L_O_P_0" class="edge-thickness-normal edge-pattern-solid edge-thickness-normal edge-pattern-solid flowchart-link" style="" marker-end="url(#mermaid-svg-10_flowchart-v2-pointEnd)"/><path d="M170.445,2402.883L154.288,2396.716C138.13,2390.549,105.815,2378.216,89.658,2351.239C73.5,2324.262,73.5,2282.641,73.5,2241.02C73.5,2199.398,73.5,2157.777,73.5,2123.144C73.5,2088.51,73.5,2060.865,73.5,2035.219C73.5,2009.573,73.5,1985.927,73.5,1963.438C73.5,1940.948,73.5,1919.615,73.5,1898.281C73.5,1876.948,73.5,1855.615,73.5,1832.281C73.5,1808.948,73.5,1783.615,73.5,1756.281C73.5,1728.948,73.5,1699.615,73.5,1667.615C73.5,1635.615,73.5,1600.948,73.5,1568.281C73.5,1535.615,73.5,1504.948,79.234,1485.816C84.969,1466.684,96.437,1459.087,102.171,1455.289L107.906,1451.49" id="L_P_K_0" class="edge-thickness-normal edge-pattern-solid edge-thickness-normal edge-pattern-solid flowchart-link" style="" marker-end="url(#mermaid-svg-10_flowchart-v2-pointEnd)"/><path d="M478.891,1589.911L453.243,1603.306C427.594,1616.701,376.297,1643.491,350.649,1662.386C325,1681.281,325,1692.281,325,1697.781L325,1703.281" id="L_L_Q_0" class="edge-thickness-normal edge-pattern-solid edge-thickness-normal edge-pattern-solid flowchart-link" style="" marker-end="url(#mermaid-svg-10_flowchart-v2-pointEnd)"/><path d="M325,1809.281L325,1813.448C325,1817.615,325,1825.948,330.862,1833.918C336.724,1841.889,348.448,1849.496,354.31,1853.3L360.172,1857.104" id="L_Q_M_0" class="edge-thickness-normal edge-pattern-solid edge-thickness-normal edge-pattern-solid flowchart-link" style="" marker-end="url(#mermaid-svg-10_flowchart-v2-pointEnd)"/><path d="M574.569,1581.974L624.956,1596.692C675.343,1611.41,776.118,1640.846,826.505,1663.063C876.893,1685.281,876.893,1700.281,876.893,1707.781L876.893,1715.281" id="L_L_R_0" class="edge-thickness-normal edge-pattern-solid edge-thickness-normal edge-pattern-solid flowchart-link" style="" marker-end="url(#mermaid-svg-10_flowchart-v2-pointEnd)"/><path d="M876.893,1797.281L876.893,1803.448C876.893,1809.615,876.893,1821.948,876.893,1833.615C876.893,1845.281,876.893,1856.281,876.893,1861.781L876.893,1867.281" id="L_R_S_0" class="edge-thickness-normal edge-pattern-solid edge-thickness-normal edge-pattern-solid flowchart-link" style="" marker-end="url(#mermaid-svg-10_flowchart-v2-pointEnd)"/><path d="M876.893,1925.281L876.893,1931.448C876.893,1937.615,876.893,1949.948,876.893,1960.771C876.893,1971.594,876.893,1980.906,876.893,1985.563L876.893,1990.219" id="L_S_T_0" class="edge-thickness-normal edge-pattern-solid edge-thickness-normal edge-pattern-solid flowchart-link" style="" marker-end="url(#mermaid-svg-10_flowchart-v2-pointEnd)"/><path d="M876.893,2072.219L876.893,2079.542C876.893,2086.865,876.893,2101.51,876.967,2114.417C877.041,2127.323,877.19,2138.49,877.265,2144.073L877.339,2149.657" id="L_T_U_0" class="edge-thickness-normal edge-pattern-solid edge-thickness-normal edge-pattern-solid flowchart-link" style="" marker-end="url(#mermaid-svg-10_flowchart-v2-pointEnd)"/><path d="M920.994,2285.781L934.144,2299.132C947.294,2312.482,973.593,2339.182,986.743,2358.033C999.893,2376.883,999.893,2387.883,999.893,2393.383L999.893,2398.883" id="L_U_V_0" class="edge-thickness-normal edge-pattern-solid edge-thickness-normal edge-pattern-solid flowchart-link" style="" marker-end="url(#mermaid-svg-10_flowchart-v2-pointEnd)"/><path d="M833.791,2285.781L820.475,2299.132C807.158,2312.482,780.525,2339.182,767.209,2358.033C753.893,2376.883,753.893,2387.883,753.893,2393.383L753.893,2398.883" id="L_U_W_0" class="edge-thickness-normal edge-pattern-solid edge-thickness-normal edge-pattern-solid flowchart-link" style="" marker-end="url(#mermaid-svg-10_flowchart-v2-pointEnd)"/><path d="M999.893,2480.883L999.893,2485.049C999.893,2489.216,999.893,2497.549,990.651,2505.623C981.409,2513.697,962.926,2521.511,953.684,2525.418L944.442,2529.325" id="L_V_X_0" class="edge-thickness-normal edge-pattern-solid edge-thickness-normal edge-pattern-solid flowchart-link" style="" marker-end="url(#mermaid-svg-10_flowchart-v2-pointEnd)"/><path d="M753.893,2480.883L753.893,2485.049C753.893,2489.216,753.893,2497.549,763.134,2505.623C772.376,2513.697,790.859,2521.511,800.101,2525.418L809.343,2529.325" id="L_W_X_0" class="edge-thickness-normal edge-pattern-solid edge-thickness-normal edge-pattern-solid flowchart-link" style="" marker-end="url(#mermaid-svg-10_flowchart-v2-pointEnd)"/><path d="M876.893,2584.883L876.893,2589.049C876.893,2593.216,876.893,2601.549,876.893,2609.216C876.893,2616.883,876.893,2623.883,876.893,2627.383L876.893,2630.883" id="L_X_Z_0" class="edge-thickness-normal edge-pattern-solid edge-thickness-normal edge-pattern-solid flowchart-link" style="" marker-end="url(#mermaid-svg-10_flowchart-v2-pointEnd)"/></g><g class="edgeLabels"><g class="edgeLabel"><g class="label" transform="translate(0, 0)"><foreignObject width="0" height="0"><div xmlns="http://www.w3.org/1999/xhtml" class="labelBkg" style="display: table-cell; white-space: nowrap; line-height: 1.5; max-width: 200px; text-align: center;"><span class="edgeLabel"></span></div></foreignObject></g></g><g class="edgeLabel"><g class="label" transform="translate(0, 0)"><foreignObject width="0" height="0"><div xmlns="http://www.w3.org/1999/xhtml" class="labelBkg" style="display: table-cell; white-space: nowrap; line-height: 1.5; max-width: 200px; text-align: center;"><span class="edgeLabel"></span></div></foreignObject></g></g><g class="edgeLabel"><g class="label" transform="translate(0, 0)"><foreignObject width="0" height="0"><div xmlns="http://www.w3.org/1999/xhtml" class="labelBkg" style="display: table-cell; white-space: nowrap; line-height: 1.5; max-width: 200px; text-align: center;"><span class="edgeLabel"></span></div></foreignObject></g></g><g class="edgeLabel"><g class="label" transform="translate(0, 0)"><foreignObject width="0" height="0"><div xmlns="http://www.w3.org/1999/xhtml" class="labelBkg" style="display: table-cell; white-space: nowrap; line-height: 1.5; max-width: 200px; text-align: center;"><span class="edgeLabel"></span></div></foreignObject></g></g><g class="edgeLabel"><g class="label" transform="translate(0, 0)"><foreignObject width="0" height="0"><div xmlns="http://www.w3.org/1999/xhtml" class="labelBkg" style="display: table-cell; white-space: nowrap; line-height: 1.5; max-width: 200px; text-align: center;"><span class="edgeLabel"></span></div></foreignObject></g></g><g class="edgeLabel"><g class="label" transform="translate(0, 0)"><foreignObject width="0" height="0"><div xmlns="http://www.w3.org/1999/xhtml" class="labelBkg" style="display: table-cell; white-space: nowrap; line-height: 1.5; max-width: 200px; text-align: center;"><span class="edgeLabel"></span></div></foreignObject></g></g><g class="edgeLabel" transform="translate(138, 974.28125)"><g class="label" transform="translate(-8, -12)"><foreignObject width="16" height="24"><div xmlns="http://www.w3.org/1999/xhtml" class="labelBkg" style="display: table-cell; white-space: nowrap; line-height: 1.5; max-width: 200px; text-align: center;"><span class="edgeLabel"><p>是</p></span></div></foreignObject></g></g><g class="edgeLabel" transform="translate(303, 1126.28125)"><g class="label" transform="translate(-8, -12)"><foreignObject width="16" height="24"><div xmlns="http://www.w3.org/1999/xhtml" class="labelBkg" style="display: table-cell; white-space: nowrap; line-height: 1.5; max-width: 200px; text-align: center;"><span class="edgeLabel"><p>否</p></span></div></foreignObject></g></g><g class="edgeLabel"><g class="label" transform="translate(0, 0)"><foreignObject width="0" height="0"><div xmlns="http://www.w3.org/1999/xhtml" class="labelBkg" style="display: table-cell; white-space: nowrap; line-height: 1.5; max-width: 200px; text-align: center;"><span class="edgeLabel"></span></div></foreignObject></g></g><g class="edgeLabel"><g class="label" transform="translate(0, 0)"><foreignObject width="0" height="0"><div xmlns="http://www.w3.org/1999/xhtml" class="labelBkg" style="display: table-cell; white-space: nowrap; line-height: 1.5; max-width: 200px; text-align: center;"><span class="edgeLabel"></span></div></foreignObject></g></g><g class="edgeLabel"><g class="label" transform="translate(0, 0)"><foreignObject width="0" height="0"><div xmlns="http://www.w3.org/1999/xhtml" class="labelBkg" style="display: table-cell; white-space: nowrap; line-height: 1.5; max-width: 200px; text-align: center;"><span class="edgeLabel"></span></div></foreignObject></g></g><g class="edgeLabel"><g class="label" transform="translate(0, 0)"><foreignObject width="0" height="0"><div xmlns="http://www.w3.org/1999/xhtml" class="labelBkg" style="display: table-cell; white-space: nowrap; line-height: 1.5; max-width: 200px; text-align: center;"><span class="edgeLabel"></span></div></foreignObject></g></g><g class="edgeLabel" transform="translate(522.26171875, 1758.28125)"><g class="label" transform="translate(-32.26171875, -12)"><foreignObject width="64.5234375" height="24"><div xmlns="http://www.w3.org/1999/xhtml" class="labelBkg" style="display: table-cell; white-space: nowrap; line-height: 1.5; max-width: 200px; text-align: center;"><span class="edgeLabel"><p>co_await</p></span></div></foreignObject></g></g><g class="edgeLabel"><g class="label" transform="translate(0, 0)"><foreignObject width="0" height="0"><div xmlns="http://www.w3.org/1999/xhtml" class="labelBkg" style="display: table-cell; white-space: nowrap; line-height: 1.5; max-width: 200px; text-align: center;"><span class="edgeLabel"></span></div></foreignObject></g></g><g class="edgeLabel" transform="translate(337.130859375, 2116.15625)"><g class="label" transform="translate(-8, -12)"><foreignObject width="16" height="24"><div xmlns="http://www.w3.org/1999/xhtml" class="labelBkg" style="display: table-cell; white-space: nowrap; line-height: 1.5; max-width: 200px; text-align: center;"><span class="edgeLabel"><p>是</p></span></div></foreignObject></g></g><g class="edgeLabel" transform="translate(152, 1758.28125)"><g class="label" transform="translate(-8, -12)"><foreignObject width="16" height="24"><div xmlns="http://www.w3.org/1999/xhtml" class="labelBkg" style="display: table-cell; white-space: nowrap; line-height: 1.5; max-width: 200px; text-align: center;"><span class="edgeLabel"><p>否</p></span></div></foreignObject></g></g><g class="edgeLabel"><g class="label" transform="translate(0, 0)"><foreignObject width="0" height="0"><div xmlns="http://www.w3.org/1999/xhtml" class="labelBkg" style="display: table-cell; white-space: nowrap; line-height: 1.5; max-width: 200px; text-align: center;"><span class="edgeLabel"></span></div></foreignObject></g></g><g class="edgeLabel"><g class="label" transform="translate(0, 0)"><foreignObject width="0" height="0"><div xmlns="http://www.w3.org/1999/xhtml" class="labelBkg" style="display: table-cell; white-space: nowrap; line-height: 1.5; max-width: 200px; text-align: center;"><span class="edgeLabel"></span></div></foreignObject></g></g><g class="edgeLabel" transform="translate(325, 1670.28125)"><g class="label" transform="translate(-29.85546875, -12)"><foreignObject width="59.7109375" height="24"><div xmlns="http://www.w3.org/1999/xhtml" class="labelBkg" style="display: table-cell; white-space: nowrap; line-height: 1.5; max-width: 200px; text-align: center;"><span class="edgeLabel"><p>co_yield</p></span></div></foreignObject></g></g><g class="edgeLabel"><g class="label" transform="translate(0, 0)"><foreignObject width="0" height="0"><div xmlns="http://www.w3.org/1999/xhtml" class="labelBkg" style="display: table-cell; white-space: nowrap; line-height: 1.5; max-width: 200px; text-align: center;"><span class="edgeLabel"></span></div></foreignObject></g></g><g class="edgeLabel" transform="translate(876.892578125, 1670.28125)"><g class="label" transform="translate(-34.9453125, -12)"><foreignObject width="69.890625" height="24"><div xmlns="http://www.w3.org/1999/xhtml" class="labelBkg" style="display: table-cell; white-space: nowrap; line-height: 1.5; max-width: 200px; text-align: center;"><span class="edgeLabel"><p>co_return</p></span></div></foreignObject></g></g><g class="edgeLabel"><g class="label" transform="translate(0, 0)"><foreignObject width="0" height="0"><div xmlns="http://www.w3.org/1999/xhtml" class="labelBkg" style="display: table-cell; white-space: nowrap; line-height: 1.5; max-width: 200px; text-align: center;"><span class="edgeLabel"></span></div></foreignObject></g></g><g class="edgeLabel"><g class="label" transform="translate(0, 0)"><foreignObject width="0" height="0"><div xmlns="http://www.w3.org/1999/xhtml" class="labelBkg" style="display: table-cell; white-space: nowrap; line-height: 1.5; max-width: 200px; text-align: center;"><span class="edgeLabel"></span></div></foreignObject></g></g><g class="edgeLabel"><g class="label" transform="translate(0, 0)"><foreignObject width="0" height="0"><div xmlns="http://www.w3.org/1999/xhtml" class="labelBkg" style="display: table-cell; white-space: nowrap; line-height: 1.5; max-width: 200px; text-align: center;"><span class="edgeLabel"></span></div></foreignObject></g></g><g class="edgeLabel" transform="translate(999.892578125, 2365.8828125)"><g class="label" transform="translate(-8, -12)"><foreignObject width="16" height="24"><div xmlns="http://www.w3.org/1999/xhtml" class="labelBkg" style="display: table-cell; white-space: nowrap; line-height: 1.5; max-width: 200px; text-align: center;"><span class="edgeLabel"><p>是</p></span></div></foreignObject></g></g><g class="edgeLabel" transform="translate(753.892578125, 2365.8828125)"><g class="label" transform="translate(-8, -12)"><foreignObject width="16" height="24"><div xmlns="http://www.w3.org/1999/xhtml" class="labelBkg" style="display: table-cell; white-space: nowrap; line-height: 1.5; max-width: 200px; text-align: center;"><span class="edgeLabel"><p>否</p></span></div></foreignObject></g></g><g class="edgeLabel"><g class="label" transform="translate(0, 0)"><foreignObject width="0" height="0"><div xmlns="http://www.w3.org/1999/xhtml" class="labelBkg" style="display: table-cell; white-space: nowrap; line-height: 1.5; max-width: 200px; text-align: center;"><span class="edgeLabel"></span></div></foreignObject></g></g><g class="edgeLabel"><g class="label" transform="translate(0, 0)"><foreignObject width="0" height="0"><div xmlns="http://www.w3.org/1999/xhtml" class="labelBkg" style="display: table-cell; white-space: nowrap; line-height: 1.5; max-width: 200px; text-align: center;"><span class="edgeLabel"></span></div></foreignObject></g></g><g class="edgeLabel"><g class="label" transform="translate(0, 0)"><foreignObject width="0" height="0"><div xmlns="http://www.w3.org/1999/xhtml" class="labelBkg" style="display: table-cell; white-space: nowrap; line-height: 1.5; max-width: 200px; text-align: center;"><span class="edgeLabel"></span></div></foreignObject></g></g></g><g class="nodes"><g class="node default" id="flowchart-A-0" transform="translate(152, 35)"><rect class="basic label-container" style="" x="-102" y="-27" width="204" height="54"/><g class="label" style="" transform="translate(-72, -12)"><rect/><foreignObject width="144" height="24"><div xmlns="http://www.w3.org/1999/xhtml" style="display: table-cell; white-space: nowrap; line-height: 1.5; max-width: 200px; text-align: center;"><span class="nodeLabel"><p>调用者调用协程函数</p></span></div></foreignObject></g></g><g class="node default" id="flowchart-B-1" transform="translate(152, 151)"><rect class="basic label-container" style="" x="-128.5078125" y="-39" width="257.015625" height="78"/><g class="label" style="" transform="translate(-98.5078125, -24)"><rect/><foreignObject width="197.015625" height="48"><div xmlns="http://www.w3.org/1999/xhtml" style="display: table-cell; white-space: nowrap; line-height: 1.5; max-width: 200px; text-align: center;"><span class="nodeLabel"><p>分配协程帧<br />（可能使用 operator new）</p></span></div></foreignObject></g></g><g class="node default" id="flowchart-C-3" transform="translate(152, 267)"><rect class="basic label-container" style="" x="-118" y="-27" width="236" height="54"/><g class="label" style="" transform="translate(-88, -12)"><rect/><foreignObject width="176" height="24"><div xmlns="http://www.w3.org/1999/xhtml" style="display: table-cell; white-space: nowrap; line-height: 1.5; max-width: 200px; text-align: center;"><span class="nodeLabel"><p>将函数参数复制到协程帧</p></span></div></foreignObject></g></g><g class="node default" id="flowchart-D-5" transform="translate(152, 371)"><rect class="basic label-container" style="" x="-95.203125" y="-27" width="190.40625" height="54"/><g class="label" style="" transform="translate(-65.203125, -12)"><rect/><foreignObject width="130.40625" height="24"><div xmlns="http://www.w3.org/1999/xhtml" style="display: table-cell; white-space: nowrap; line-height: 1.5; max-width: 200px; text-align: center;"><span class="nodeLabel"><p>构造 promise 对象</p></span></div></foreignObject></g></g><g class="node default" id="flowchart-E-7" transform="translate(152, 511)"><rect class="basic label-container" style="" x="-130" y="-63" width="260" height="126"/><g class="label" style="" transform="translate(-100, -48)"><rect/><foreignObject width="200" height="96"><div xmlns="http://www.w3.org/1999/xhtml" style="display: table; white-space: break-spaces; line-height: 1.5; max-width: 200px; text-align: center; width: 200px;"><span class="nodeLabel"><p>调用 promise.get_return_object()<br />获取返回对象，交给调用者</p></span></div></foreignObject></g></g><g class="node default" id="flowchart-F-9" transform="translate(152, 663)"><rect class="basic label-container" style="" x="-130" y="-39" width="260" height="78"/><g class="label" style="" transform="translate(-100, -24)"><rect/><foreignObject width="200" height="48"><div xmlns="http://www.w3.org/1999/xhtml" style="display: table; white-space: break-spaces; line-height: 1.5; max-width: 200px; text-align: center; width: 200px;"><span class="nodeLabel"><p>执行 initial_suspend 的 awaitable</p></span></div></foreignObject></g></g><g class="node default" id="flowchart-G-11" transform="translate(152, 844.640625)"><polygon points="92.640625,0 185.28125,-92.640625 92.640625,-185.28125 0,-92.640625" class="label-container" transform="translate(-92.140625, 92.640625)"/><g class="label" style="" transform="translate(-53.640625, -24)"><rect/><foreignObject width="107.28125" height="48"><div xmlns="http://www.w3.org/1999/xhtml" style="display: table-cell; white-space: nowrap; line-height: 1.5; max-width: 200px; text-align: center;"><span class="nodeLabel"><p>initial_suspend<br />是否挂起？</p></span></div></foreignObject></g></g><g class="node default" id="flowchart-H-13" transform="translate(138, 1050.28125)"><rect class="basic label-container" style="" x="-94" y="-39" width="188" height="78"/><g class="label" style="" transform="translate(-64, -24)"><rect/><foreignObject width="128" height="48"><div xmlns="http://www.w3.org/1999/xhtml" style="display: table-cell; white-space: nowrap; line-height: 1.5; max-width: 200px; text-align: center;"><span class="nodeLabel"><p>协程在此处挂起<br />控制权返回调用者</p></span></div></foreignObject></g></g><g class="node default" id="flowchart-I-15" transform="translate(152, 1318.28125)"><rect class="basic label-container" style="" x="-86" y="-27" width="172" height="54"/><g class="label" style="" transform="translate(-56, -12)"><rect/><foreignObject width="112" height="24"><div xmlns="http://www.w3.org/1999/xhtml" style="display: table-cell; white-space: nowrap; line-height: 1.5; max-width: 200px; text-align: center;"><span class="nodeLabel"><p>直接进入函数体</p></span></div></foreignObject></g></g><g class="node default" id="flowchart-J-17" transform="translate(138, 1202.28125)"><rect class="basic label-container" style="" x="-130" y="-39" width="260" height="78"/><g class="label" style="" transform="translate(-100, -24)"><rect/><foreignObject width="200" height="48"><div xmlns="http://www.w3.org/1999/xhtml" style="display: table; white-space: break-spaces; line-height: 1.5; max-width: 200px; text-align: center; width: 200px;"><span class="nodeLabel"><p>调用者通过 future/resume 恢复协程</p></span></div></foreignObject></g></g><g class="node default" id="flowchart-K-21" transform="translate(152, 1422.28125)"><rect class="basic label-container" style="" x="-86" y="-27" width="172" height="54"/><g class="label" style="" transform="translate(-56, -12)"><rect/><foreignObject width="112" height="24"><div xmlns="http://www.w3.org/1999/xhtml" style="display: table-cell; white-space: nowrap; line-height: 1.5; max-width: 200px; text-align: center;"><span class="nodeLabel"><p>执行协程函数体</p></span></div></foreignObject></g></g><g class="node default" id="flowchart-L-23" transform="translate(522.26171875, 1566.28125)"><polygon points="67,0 134,-67 67,-134 0,-67" class="label-container" transform="translate(-66.5, 67)"/><g class="label" style="" transform="translate(-40, -12)"><rect/><foreignObject width="80" height="24"><div xmlns="http://www.w3.org/1999/xhtml" style="display: table-cell; white-space: nowrap; line-height: 1.5; max-width: 200px; text-align: center;"><span class="nodeLabel"><p>遇到什么？</p></span></div></foreignObject></g></g><g class="node default" id="flowchart-M-25" transform="translate(423.630859375, 1898.28125)"><rect class="basic label-container" style="" x="-102.015625" y="-39" width="204.03125" height="78"/><g class="label" style="" transform="translate(-72.015625, -24)"><rect/><foreignObject width="144.03125" height="48"><div xmlns="http://www.w3.org/1999/xhtml" style="display: table-cell; white-space: nowrap; line-height: 1.5; max-width: 200px; text-align: center;"><span class="nodeLabel"><p>执行 awaitable 流程<br />（可能挂起/恢复）</p></span></div></foreignObject></g></g><g class="node default" id="flowchart-N-27" transform="translate(337.130859375, 2033.21875)"><polygon points="45.9375,0 91.875,-45.9375 45.9375,-91.875 0,-45.9375" class="label-container" transform="translate(-45.4375, 45.9375)"/><g class="label" style="" transform="translate(-18.9375, -12)"><rect/><foreignObject width="37.875" height="24"><div xmlns="http://www.w3.org/1999/xhtml" style="display: table-cell; white-space: nowrap; line-height: 1.5; max-width: 200px; text-align: center;"><span class="nodeLabel"><p>挂起?</p></span></div></foreignObject></g></g><g class="node default" id="flowchart-O-29" transform="translate(337.130859375, 2241.01953125)"><rect class="basic label-container" style="" x="-94" y="-39" width="188" height="78"/><g class="label" style="" transform="translate(-64, -24)"><rect/><foreignObject width="128" height="48"><div xmlns="http://www.w3.org/1999/xhtml" style="display: table-cell; white-space: nowrap; line-height: 1.5; max-width: 200px; text-align: center;"><span class="nodeLabel"><p>挂起，控制权返回<br />调用者/调度器</p></span></div></foreignObject></g></g><g class="node default" id="flowchart-P-33" transform="translate(272.630859375, 2441.8828125)"><rect class="basic label-container" style="" x="-130" y="-39" width="260" height="78"/><g class="label" style="" transform="translate(-100, -24)"><rect/><foreignObject width="200" height="48"><div xmlns="http://www.w3.org/1999/xhtml" style="display: table; white-space: break-spaces; line-height: 1.5; max-width: 200px; text-align: center; width: 200px;"><span class="nodeLabel"><p>外部通过 handle.resume 恢复</p></span></div></foreignObject></g></g><g class="node default" id="flowchart-Q-37" transform="translate(325, 1758.28125)"><rect class="basic label-container" style="" x="-130" y="-51" width="260" height="102"/><g class="label" style="" transform="translate(-100, -36)"><rect/><foreignObject width="200" height="72"><div xmlns="http://www.w3.org/1999/xhtml" style="display: table; white-space: break-spaces; line-height: 1.5; max-width: 200px; text-align: center; width: 200px;"><span class="nodeLabel"><p>调用 promise.yield_value(expr)<br />等价于 co_await 该结果</p></span></div></foreignObject></g></g><g class="node default" id="flowchart-R-41" transform="translate(876.892578125, 1758.28125)"><rect class="basic label-container" style="" x="-130" y="-39" width="260" height="78"/><g class="label" style="" transform="translate(-100, -24)"><rect/><foreignObject width="200" height="48"><div xmlns="http://www.w3.org/1999/xhtml" style="display: table; white-space: break-spaces; line-height: 1.5; max-width: 200px; text-align: center; width: 200px;"><span class="nodeLabel"><p>调用 promise.return_value / return_void</p></span></div></foreignObject></g></g><g class="node default" id="flowchart-S-43" transform="translate(876.892578125, 1898.28125)"><rect class="basic label-container" style="" x="-110" y="-27" width="220" height="54"/><g class="label" style="" transform="translate(-80, -12)"><rect/><foreignObject width="160" height="24"><div xmlns="http://www.w3.org/1999/xhtml" style="display: table-cell; white-space: nowrap; line-height: 1.5; max-width: 200px; text-align: center;"><span class="nodeLabel"><p>按栈展开销毁局部变量</p></span></div></foreignObject></g></g><g class="node default" id="flowchart-T-45" transform="translate(876.892578125, 2033.21875)"><rect class="basic label-container" style="" x="-130" y="-39" width="260" height="78"/><g class="label" style="" transform="translate(-100, -24)"><rect/><foreignObject width="200" height="48"><div xmlns="http://www.w3.org/1999/xhtml" style="display: table; white-space: break-spaces; line-height: 1.5; max-width: 200px; text-align: center; width: 200px;"><span class="nodeLabel"><p>执行 final_suspend 的 awaitable</p></span></div></foreignObject></g></g><g class="node default" id="flowchart-U-47" transform="translate(876.892578125, 2241.01953125)"><polygon points="87.86328125,0 175.7265625,-87.86328125 87.86328125,-175.7265625 0,-87.86328125" class="label-container" transform="translate(-87.36328125, 87.86328125)"/><g class="label" style="" transform="translate(-48.86328125, -24)"><rect/><foreignObject width="97.7265625" height="48"><div xmlns="http://www.w3.org/1999/xhtml" style="display: table-cell; white-space: nowrap; line-height: 1.5; max-width: 200px; text-align: center;"><span class="nodeLabel"><p>final_suspend<br />挂起？</p></span></div></foreignObject></g></g><g class="node default" id="flowchart-V-49" transform="translate(999.892578125, 2441.8828125)"><rect class="basic label-container" style="" x="-110" y="-39" width="220" height="78"/><g class="label" style="" transform="translate(-80, -24)"><rect/><foreignObject width="160" height="48"><div xmlns="http://www.w3.org/1999/xhtml" style="display: table-cell; white-space: nowrap; line-height: 1.5; max-width: 200px; text-align: center;"><span class="nodeLabel"><p>协程挂起，通常由外部<br />或对称转移销毁帧</p></span></div></foreignObject></g></g><g class="node default" id="flowchart-W-51" transform="translate(753.892578125, 2441.8828125)"><rect class="basic label-container" style="" x="-86" y="-39" width="172" height="78"/><g class="label" style="" transform="translate(-56, -24)"><rect/><foreignObject width="112" height="48"><div xmlns="http://www.w3.org/1999/xhtml" style="display: table-cell; white-space: nowrap; line-height: 1.5; max-width: 200px; text-align: center;"><span class="nodeLabel"><p>协程自动销毁帧<br />并返回调用者</p></span></div></foreignObject></g></g><g class="node default" id="flowchart-X-53" transform="translate(876.892578125, 2557.8828125)"><rect class="basic label-container" style="" x="-70" y="-27" width="140" height="54"/><g class="label" style="" transform="translate(-40, -12)"><rect/><foreignObject width="80" height="24"><div xmlns="http://www.w3.org/1999/xhtml" style="display: table-cell; white-space: nowrap; line-height: 1.5; max-width: 200px; text-align: center;"><span class="nodeLabel"><p>协程帧销毁</p></span></div></foreignObject></g></g><g class="node default" id="flowchart-Z-57" transform="translate(876.892578125, 2661.8828125)"><rect class="basic label-container" style="" x="-62" y="-27" width="124" height="54"/><g class="label" style="" transform="translate(-32, -12)"><rect/><foreignObject width="64" height="24"><div xmlns="http://www.w3.org/1999/xhtml" style="display: table-cell; white-space: nowrap; line-height: 1.5; max-width: 200px; text-align: center;"><span class="nodeLabel"><p>协程结束</p></span></div></foreignObject></g></g></g></g></g></svg>